<?xml version="1.0" encoding="UTF-8"?>
<svg width="200px" height="200px" viewBox="0 0 200 200" version="1.1" xmlns="http://www.w3.org/2000/svg" xmlns:xlink="http://www.w3.org/1999/xlink">
    <!-- Generator: Sketch 48 (47235) - http://www.bohemiancoding.com/sketch -->
    <title>Group 7</title>
    <desc>Created with Sketch.</desc>
    <defs></defs>
    <g id="Page-1" stroke="none" stroke-width="1" fill="none" fill-rule="evenodd">
        <g id="Group-7">
            <circle id="Oval-Copy-2" fill="#FFFFFF" cx="100" cy="100" r="100"></circle>
            <g id="croissant" transform="translate(42.000000, 67.000000)" fill="#FFC000" fill-rule="nonzero">
                <path d="M114.978754,44.4527632 C111.512887,37.5439349 106.713255,31.2054016 101.147007,25.6225606 C100.807404,21.9792234 99.3236949,18.4202817 96.6719159,15.5292244 C92.1116957,10.2566676 85.501305,7.02780095 78.601065,6.48025395 C78.2696782,5.77710989 77.8691384,5.09989867 77.3912293,4.46477145 C75.4437613,1.74705481 72.1328603,0 68.6272809,0 L47.9833895,0 C44.4778102,0 41.3618157,1.74705481 39.2194411,4.46477145 C38.8303127,4.98183598 38.4943613,5.52779061 38.2024579,6.09148876 C31.1627707,6.71524192 24.3894253,9.95525516 19.7440762,15.1411417 C16.8868921,18.2560403 15.3846966,22.1461945 15.2103305,26.0820724 C9.9353008,31.5040843 5.53780709,37.608312 2.02127278,44.0646805 C-0.705365026,48.7234933 -0.705365026,54.5470093 2.21595112,59.2058221 C4.74768237,63.4763247 9.81137309,66 14.8750638,66 C16.6278535,66 18.3806432,65.8059586 19.9387545,65.0293382 L40.3521358,56.9639959 C42.9089721,57.931473 45.6157541,58.4294292 48.3727462,58.4294292 C49.4066182,58.4294292 50.4379798,58.3407115 51.3579661,58.113003 C52.8546842,60.5729835 55.4507757,62.1175802 58.3052211,62.1175802 C61.1185855,62.1175802 63.6799863,60.6164324 65.18629,58.2180992 C66.1952852,58.3377543 67.1714156,58.4294292 68.237696,58.4294292 C70.9853308,58.4294292 73.6829836,57.9355677 76.231832,56.999483 L96.6716876,65.2233795 C98.229799,65.8057311 99.9825887,65.9997725 101.735378,65.9997725 C106.409484,65.9997725 111.667853,63.8644075 114.783848,59.5939049 C117.705392,54.9350921 117.705392,49.111576 114.978754,44.4527632 Z M18.5753215,61.5352285 C14.4854789,63.088242 8.25326174,61.9235388 5.3319456,57.264726 C3.18957101,53.7706163 3.18957101,49.5001137 5.3319456,46.0060041 C8.22610263,40.6212991 11.6944809,35.8084816 15.7357109,31.1892505 C16.4683223,34.0507352 17.9360554,36.7611724 20.1334329,39.0177849 L33.3768088,52.800182 C34.1422849,53.4589672 34.9399412,54.0597448 35.7631589,54.6059269 L18.5753215,61.5352285 Z M42.2290814,53.4751184 C42.0517484,53.2913137 41.8294545,53.1300296 41.556494,52.9939959 C39.609026,52.2176029 37.8562363,51.2469411 36.298125,49.8881965 L23.2496556,36.3000682 C20.7179243,33.5823516 19.3544913,30.2825108 19.3544913,26.5941324 C19.3544913,26.3104634 19.2759809,26.0527274 19.1484016,25.8209241 C19.3670438,22.8650348 20.5280388,19.9655607 22.6653924,17.6648169 C26.3656501,13.5883557 31.4293408,10.8706391 36.8823882,10.0942461 C36.6877099,11.8413009 36.8823882,13.5883557 37.4666514,15.1413692 L49.7361792,54.3529679 C47.1747784,54.5492841 44.6140622,54.2471892 42.2290814,53.4751184 Z M58.3052211,58.2351603 C56.7471097,58.2351603 54.9943201,57.4587673 54.2153785,55.1293609 L41.1669091,13.9764385 C40.3879676,11.4529907 40.7773242,8.92931542 42.3354356,6.79417786 C43.6986404,5.04712305 45.6463366,3.88241985 47.9833895,3.88241985 L68.6272809,3.88241985 C70.7696555,3.88241985 72.9118018,4.85308168 74.2752348,6.79417786 C74.615979,7.26096907 74.8971557,7.75687786 75.1262964,8.26916528 C75.1381642,8.4964189 75.1808428,8.72480992 75.249083,8.92931542 C75.4948843,9.41908222 75.6626318,9.94774828 75.7594004,10.4964327 C75.9171058,11.6747848 75.8139468,12.869288 75.4437613,13.976211 L62.3952919,55.1291334 C62.3710998,55.2016999 62.3430277,55.2683519 62.3167815,55.3379611 C62.201983,55.3820924 62.2003854,55.5172162 62.2003854,55.5172162 C62.1490341,55.6198102 62.1122894,55.736508 62.0915207,55.8625325 C61.218321,57.6227812 59.6859994,58.2351603 58.3052211,58.2351603 Z M66.7103954,54.3545603 L79.144019,15.1413692 C79.7282822,13.3943144 79.9229606,11.8413009 79.7282822,10.0942461 C84.9866513,11.0649079 90.050342,13.5883557 93.7505997,17.4707756 C98.6193839,22.71194 98.4247056,30.8648624 93.5559214,36.1060269 L80.507452,49.6941551 C76.8144976,53.1809853 71.7638159,54.7339988 66.7103954,54.3545603 Z M111.083818,57.2644985 C108.35718,61.7292699 102.125191,63.0880145 98.0353489,61.5350011 L80.9495293,54.6464186 C81.7364588,54.141183 82.5003374,53.5920437 83.2340898,52.9937684 L96.2825592,39.4056402 C98.6029515,37.0227757 100.106288,34.1330833 100.792797,31.0943909 C104.869175,35.743422 108.364712,40.7782611 111.278497,46.199818 C113.225965,49.4998863 113.225965,53.7703889 111.083818,57.2644985 Z" id="Shape"></path>
            </g>
        </g>
    </g>
</svg>