<?xml version="1.0" encoding="UTF-8"?>
<svg width="200px" height="200px" viewBox="0 0 200 200" version="1.1" xmlns="http://www.w3.org/2000/svg" xmlns:xlink="http://www.w3.org/1999/xlink">
    <!-- Generator: Sketch 48 (47235) - http://www.bohemiancoding.com/sketch -->
    <title>Group 4</title>
    <desc>Created with Sketch.</desc>
    <defs></defs>
    <g id="Page-1" stroke="none" stroke-width="1" fill="none" fill-rule="evenodd">
        <g id="dessert" fill-rule="nonzero">
            <g id="Group-4">
                <circle id="Oval" fill="#FFFFFF" cx="100" cy="100" r="100"></circle>
                <g id="dessert" transform="translate(61.000000, 48.000000)" fill="#FFC000">
                    <path d="M74.3515642,61.684532 L74.2764183,61.684532 C75.8785463,59.5863508 77.2854312,56.769953 77.2298096,53.3827465 C77.1546638,48.8044842 74.4149047,44.3253254 69.0868132,40.0695463 C69.7529098,38.0713756 69.8943475,36.1013259 69.5034074,34.1711897 C67.9541767,26.5248024 59.647721,23.4709644 52.0252971,21.7732791 C52.29614,20.8743178 52.4434803,19.9222895 52.4434803,18.9362442 C52.4434803,15.2047836 50.3582394,11.9509245 47.2911077,10.2750102 C50.3425746,4.0859199 54.4113484,3.40172052 56.0479845,3.40172052 C58.1332254,3.40172052 59.444305,3.84757268 60.2028015,4.24965604 C60.7928441,4.56238755 61.5079784,4.51204209 62.0396751,4.10837126 C63.0297389,3.35659102 62.9021498,1.83692908 61.8042484,1.25342062 C60.5828443,0.603918782 58.7266734,0 56.0479845,0 C52.7835665,0 49.7218834,1.50038552 47.1939403,4.33878113 C46.3428169,5.2944378 45.1127858,6.90526586 44.0384951,9.18124365 C43.5585605,9.10935397 43.0675016,9.07125467 42.5678156,9.07125467 C38.8643279,9.07125467 35.6321477,11.1193172 33.9421604,14.1402718 C33.3235125,13.4574331 32.6401618,12.5641414 32.158638,11.55315 C31.9561302,11.127935 31.5860765,10.8056786 31.1367905,10.6630332 C30.6875045,10.5206145 30.1989429,10.5702795 29.7880245,10.8006895 C24.6976301,13.6531455 20.9809748,17.4533208 18.7409016,22.0957622 C16.8252496,26.0660236 16.4710879,29.7237803 16.4645041,31.8507627 C16.3205691,31.906551 16.1779963,31.9623392 16.0447316,32.0194881 C11.6374608,33.906309 9.0961231,37.4982992 8.69473978,42.4069818 C8.53445885,44.3690943 8.75626396,46.1595332 8.99305293,47.3882346 C5.48571628,48.6436962 3.04654061,51.0437234 2.16703888,54.1889542 C1.472791,56.6717566 1.83103926,59.3654657 3.06129735,61.6847588 L1.70276913,61.6847588 C1.18492105,61.6847588 0.695224301,61.9201579 0.371938174,62.3245091 C0.0488790729,62.7288602 -0.072353225,63.2579411 0.0422952964,63.7625297 L8.4806535,100.851716 C9.03641507,103.294151 11.1756884,105 13.6831991,105 L62.3706802,105 C64.8779639,105 67.0174642,103.294151 67.5732257,100.851716 L76.011584,63.7625297 C76.1262324,63.2579411 76.0050002,62.7288602 75.6819411,62.3245091 C75.359336,61.919931 74.8696393,61.684532 74.3515642,61.684532 Z M42.5678156,12.4729753 C46.1355415,12.4729753 49.0380788,15.372375 49.0380788,18.9362442 C49.0380788,22.5001134 46.1355415,25.3995132 42.5678156,25.3995132 C39.0000899,25.3995132 36.0975526,22.5001134 36.0975526,18.9362442 C36.0975526,15.372375 39.0003169,12.4729753 42.5678156,12.4729753 Z M13.6836531,101.598053 C12.7766812,101.598053 12.0029739,100.980981 11.8018282,100.097667 L3.83613974,65.0862525 L9.34698771,65.0862525 L15.4342566,100.760322 C15.4837485,101.050603 15.5534456,101.329544 15.6381267,101.598053 L13.6836531,101.598053 Z M19.7695599,101.598053 C19.4603494,101.598053 18.9484041,101.108205 18.7915285,100.188833 L12.8016541,65.0862525 L18.3449669,65.0862525 L22.3926272,100.666661 C22.4296326,100.990959 22.483665,101.302103 22.5533622,101.598053 L19.7695599,101.598053 Z M26.163315,101.598053 C26.044807,101.405515 25.8563748,100.985516 25.7764613,100.282494 L21.7723901,65.0862525 L27.3374974,65.0862525 L29.3559925,100.57096 C29.3766519,100.935624 29.4084357,101.277838 29.4506627,101.598053 L26.163315,101.598053 Z M36.3245793,101.598053 L32.9014696,101.598053 C32.8431237,101.306639 32.785686,100.904328 32.7557184,100.378196 L30.7483477,65.0862525 L36.2058444,65.0862525 C36.2078876,65.0862525 36.2099309,65.086706 36.2119741,65.086706 C36.2149254,65.086706 36.2176498,65.0862525 36.2206011,65.0862525 L36.3245793,65.0862525 L36.3245793,101.598053 Z M43.2988419,100.378196 C43.2688743,100.904328 43.2114366,101.306865 43.1530907,101.598053 L39.729981,101.598053 L39.729981,65.0862525 L45.3062126,65.0862525 L43.2988419,100.378196 Z M49.8914724,101.598053 L46.6038977,101.598053 C46.6463517,101.278064 46.6779084,100.935851 46.6985679,100.57096 L48.7170629,65.0862525 L54.2823972,65.0862525 L50.278326,100.282494 C50.1984126,100.985516 50.0102074,101.405515 49.8914724,101.598053 Z M56.2852275,101.598053 L53.5011981,101.598053 C53.5711224,101.302103 53.6251548,100.990959 53.6621602,100.666661 L57.7095934,65.0862525 L63.2529062,65.0862525 L57.2630318,100.188833 C57.1063833,101.108205 56.594438,101.598053 56.2852275,101.598053 Z M64.2527321,100.097667 C64.0518135,100.981207 63.2778791,101.598053 62.3709072,101.598053 L60.4162067,101.598053 C60.5008876,101.329544 60.5705849,101.050603 60.6200767,100.760322 L66.7075727,65.0862525 L70.3163903,65.0862525 C70.3177524,65.0862525 70.3191146,65.0864793 70.3207038,65.0864793 C70.32252,65.0864793 70.3241092,65.0862525 70.3259254,65.0862525 L72.2186476,65.0862525 L64.2527321,100.097667 Z M69.6743585,61.684532 L43.5662795,61.684532 C47.394632,59.6863614 52.3535778,56.8862918 57.0264699,53.6115689 C57.7963177,53.072056 57.9824797,52.0113995 57.4423829,51.2423839 C56.9022863,50.4733683 55.840482,50.2874075 55.0706342,50.8269205 C46.9598756,56.5111954 37.6728914,60.8504301 35.8439637,61.684532 L7.20340086,61.684532 C5.51137031,59.8596223 4.82211702,57.3403081 5.44734876,55.1037903 C6.15521824,52.5717763 8.44137787,50.7987995 11.884693,50.1107449 C15.1189164,49.4646448 23.670788,47.6660418 33.210226,44.9260693 C34.1137926,44.6664046 34.6359542,43.724128 34.3760085,42.8213114 C34.1160629,41.9187216 33.1736748,41.3966709 32.2689731,41.6567891 C23.7659122,44.0992244 16.0592613,45.7835296 12.2926601,46.5570809 C11.7720877,43.7574649 11.4281421,37.6967328 17.3864598,35.145896 C19.686014,34.1614381 24.3461927,33.3137293 29.2799385,32.4163555 L30.9281529,32.1158701 C31.85306,31.9462377 32.4653512,31.0599762 32.2955352,30.1360688 C32.1257191,29.2119348 31.2384986,28.6005322 30.3135914,28.7701646 L28.6699176,29.0699696 C25.4840509,29.649396 22.4087461,30.2090924 19.8994192,30.8220824 C20.1309865,26.8586245 21.8116657,19.8587908 30.0093756,14.6312535 C30.6246181,15.5492645 31.2859471,16.3053536 31.8115141,16.8466807 C32.1783894,17.2244984 32.4914593,17.5204481 32.7650266,17.758115 C32.7187131,18.145004 32.6921509,18.5375626 32.6921509,18.9366978 C32.6921509,24.3762756 37.1223514,28.8016873 42.5678156,28.8016873 C45.7677581,28.8016873 48.616036,27.2722738 50.421807,24.908078 C53.779987,25.6215321 56.5587947,26.4467895 58.8029544,27.4108371 C59.2286296,28.0542159 59.1702837,28.5166231 59.0524568,28.8860499 C58.629506,30.2097728 55.9916818,33.8498405 40.6698718,39.0438141 C39.7794729,39.3456601 39.3024895,40.311522 39.6046622,41.2009585 C39.8453105,41.9094235 40.5073206,42.3557292 41.2170063,42.3557292 C41.3984008,42.3557292 41.5829735,42.3264744 41.7643679,42.2650167 C47.2561456,40.4033684 51.7113191,38.5442148 55.0061586,36.7392619 C59.1759594,34.4548932 61.5608757,32.2242717 62.2968965,29.920173 C62.3511559,29.7503138 62.394518,29.5806812 62.4308422,29.410822 C64.5242561,30.9295768 65.735217,32.7202425 66.1661138,34.8465446 C66.7924807,37.9375746 65.3858228,41.3504074 61.9856428,44.9902484 C61.3440651,45.6769424 61.3812975,46.7532467 62.0689616,47.3941309 C62.3972423,47.700059 62.8140635,47.8515489 63.2302036,47.8515489 C63.6856192,47.8515489 64.1401268,47.6701238 64.4754454,47.3111289 C65.7472494,45.9497604 66.7874861,44.5945149 67.5977446,43.2490211 C71.6751455,46.6679769 73.7706026,50.0935095 73.8253161,53.4389883 C73.8859323,57.1509457 71.4322269,60.0727968 69.6743585,61.684532 Z" id="Shape"></path>
                </g>
            </g>
        </g>
    </g>
</svg>