<?xml version="1.0"?>
<svg xmlns="http://www.w3.org/2000/svg" xmlns:xlink="http://www.w3.org/1999/xlink" version="1.1" id="Layer_1" x="0px" y="0px" width="512px" height="512px" viewBox="0 0 128 128" enable-background="new 0 0 128 128" xml:space="preserve" class=""><g><path d="M116,16c-2.211,0-4-1.789-4-4s1.789-4,4-4s4-1.789,4-4s-1.789-4-4-4H64H32H20C13.375,0,8,5.371,8,12v108  c0,4.418,3.578,8,8,8h96c4.422,0,8-3.582,8-8V20C120,17.789,118.211,16,116,16z M64,8h40.734C104.289,9.258,104,10.59,104,12  s0.289,2.742,0.734,4H64V8z M40,24v-8V8h16v8v8v20.688l-8-8l-8,8V24z M20,8h12v8H20c-2.203,0-4-1.793-4-4S17.797,8,20,8z M112,120  H16V23.266C17.258,23.711,18.594,24,20,24h12v40l16-16l16,16V24h48V120z" data-original="#000000" class="active-path" data-old_color="#c8c8c8" fill="#c8c8c8"/></g> </svg>
