<?xml version="1.0" encoding="UTF-8" standalone="no"?>
<!DOCTYPE svg PUBLIC "-//W3C//DTD SVG 1.1//EN" "http://www.w3.org/Graphics/SVG/1.1/DTD/svg11.dtd">
<svg width="100%" height="100%" viewBox="0 0 41 40" version="1.1" xmlns="http://www.w3.org/2000/svg" xmlns:xlink="http://www.w3.org/1999/xlink" xml:space="preserve" xmlns:serif="http://www.serif.com/" style="fill-rule:evenodd;clip-rule:evenodd;stroke-linejoin:round;stroke-miterlimit:1.41421;">
    <g transform="matrix(0.757172,0,0,0.755541,-589.028,-671.146)">
        <path d="M829.258,918.671C829.272,918.57 829.288,918.468 829.3,918.367C829.306,918.461 829.31,918.53 829.31,918.53C829.292,918.584 829.276,918.625 829.258,918.671ZM829.373,918.073C829.364,918.024 829.355,917.979 829.345,917.93C829.685,914.472 829.183,911.182 829.183,907.386C828.046,899.424 821.221,894.875 814.397,891.463C814.09,891.258 813.772,891.09 813.449,890.937C814.467,891.276 816.352,892.401 816.793,892.169C816.02,891.883 815.107,891.531 814.252,891.103C813.353,890.604 812.321,890.265 811.283,890.1C810.028,889.903 808.81,889.933 807.721,890.064C806.067,890.129 804.446,890.325 803.023,890.325C800.748,890.325 797.336,891.463 795.062,892.6C792.971,893.645 791.12,894.931 789.456,896.403C789.216,896.48 788.992,896.551 788.808,896.645C788.827,896.705 788.931,896.74 789.018,896.795C788.402,897.367 787.819,897.971 787.265,898.605C787.261,898.583 787.26,898.56 787.251,898.544C786.742,899.15 786.376,899.674 785.887,900.026C785.655,900.453 785.626,900.591 785.667,900.634C785.439,900.956 785.194,901.262 784.979,901.597C784.799,901.404 784.762,900.88 784.28,901.102C784.879,899.502 786.216,897.751 786.724,896.975C786.724,896.975 786.592,897.132 786.394,897.367C786.208,897.612 785.96,897.939 785.712,898.265C785.222,898.92 784.787,899.61 784.787,899.61C784.667,899.265 783.154,901.189 783.914,899.588C782.847,900.875 781.945,902.498 781.263,904.167C780.922,905.002 780.62,905.847 780.388,906.677C780.273,907.093 780.141,907.496 780.053,907.9C779.942,908.359 779.833,908.807 779.727,909.242C780.022,908.6 780.213,908.175 780.354,908.295C780.284,908.653 780.181,909.021 780.083,909.295C779.973,909.56 780.01,909.749 779.944,909.875C779.856,910.13 779.723,910.21 779.626,910.351C779.812,911.484 780.277,911.358 780.623,912.053C780.231,914.39 780.469,914.719 779.903,916.709L780.369,916.586C780.275,916.955 780.248,917.17 780.257,917.528C780.24,917.84 780.413,918.12 780.486,918.325C780.665,918.729 780.875,919.132 780.942,919.927C780.866,920.039 780.602,919.485 780.376,919.036C780.874,920.356 780.315,920.404 780.921,921.676C780.921,921.676 780.709,921.454 780.497,921.232C780.293,921.003 780.088,920.773 780.088,920.773C780.413,921.856 781.177,923.341 780.554,922.956C781.161,923.791 781.789,924.998 782.519,926.198C783.242,927.401 784.051,928.593 784.847,929.469L784.427,929.57C784.972,929.941 785.616,930.841 786.263,931.706C786.862,932.537 787.705,933.512 788.292,933.69L788.304,933.945C788.304,933.945 788.866,934.313 789.432,934.642C789.722,934.796 790.011,934.949 790.228,935.064C790.45,935.165 790.598,935.232 790.598,935.232C791.493,935.949 790.862,936.204 791.023,936.126C793.253,937.461 795.128,938.04 796.56,938.724C796.831,938.527 797.583,938.579 798.502,938.707C799.416,938.822 800.509,939.097 801.545,939.183C806.365,940.181 811.633,939.47 816.153,937.391C820.689,935.316 824.339,931.703 826.277,927.728C826.494,927.391 826.633,926.955 826.756,926.491C827.26,925.482 827.709,924.431 828.046,923.309C828.631,921.845 828.988,920.457 829.199,919.105C829.329,919.049 829.453,919.011 829.538,919.148C829.538,919.148 829.469,918.604 829.373,918.073Z" style="fill:white;fill-rule:nonzero;"/>
    </g>
    <g transform="matrix(0.167659,-0.0317602,0.0318166,0.167298,-220.786,-176.372)">
        <text x="1106.97px" y="1434.77px" style="font-family:'HappyMonkey-Regular', 'Happy Monkey';font-size:150px;fill:rgb(186,198,74);">m</text>
    </g>
</svg>
