<?xml version="1.0" encoding="UTF-8"?>
<svg width="200px" height="200px" viewBox="0 0 200 200" version="1.1" xmlns="http://www.w3.org/2000/svg" xmlns:xlink="http://www.w3.org/1999/xlink">
    <!-- Generator: Sketch 48 (47235) - http://www.bohemiancoding.com/sketch -->
    <title>Group 5</title>
    <desc>Created with Sketch.</desc>
    <defs></defs>
    <g id="Page-1" stroke="none" stroke-width="1" fill="none" fill-rule="evenodd">
        <g id="main-course" fill-rule="nonzero">
            <g id="Group-5">
                <circle id="Oval" fill="#FFFFFF" cx="100" cy="100" r="100"></circle>
                <g id="main-course" transform="translate(40.000000, 67.000000)" fill="#FFC000">
                    <path d="M118.152923,43.4823534 L103.490807,43.4823534 C103.49366,43.4393887 103.497291,43.3966828 103.497291,43.3529416 C103.497291,40.5887064 101.639528,38.2494593 99.1047522,37.51233 C98.3660046,34.9828476 96.021363,33.1294124 93.251319,33.1294124 C92.8689756,33.1294124 92.4894855,33.1656477 92.1172584,33.2365653 C90.7196558,30.6579066 88.0116064,28.988236 84.9507843,28.988236 C83.8348812,28.988236 82.7418045,29.2196242 81.7306956,29.6588477 C80.6417692,27.995389 78.7668859,26.9176478 76.6502496,26.9176478 C74.7860014,26.9176478 73.0633811,27.7759067 71.9293206,29.1751065 C71.4416641,29.0513889 70.9368879,28.988236 70.4248486,28.988236 C68.5606005,28.988236 66.8379801,29.8464948 65.7039196,31.2456948 C64.8518178,31.0298359 63.9361651,31.0000712 63.0653871,31.1659772 C61.6677846,28.5873183 58.9597352,26.9176478 55.898913,26.9176478 C53.64013,26.9176478 51.5115616,27.8649418 49.988673,29.4771536 C49.2405872,29.1567301 48.4302475,28.988236 47.5983784,28.988236 C45.8246579,28.988236 44.1497656,29.7675536 43.0035136,31.0764242 C42.8533259,31.0872948 42.7041756,31.1017889 42.5563223,31.1232713 L16.4690389,1.95593062 C15.3990482,0.75990711 13.8644868,0.0478835944 12.2585927,0.00233065408 C10.6508829,-0.0432222862 9.07974734,0.580801231 7.94387104,1.71418945 C6.80773537,2.84783648 6.18234196,4.41682469 6.22799491,6.01945995 C6.27338845,7.62209522 6.98723443,9.15329518 8.18588351,10.2206834 L36.5200179,35.4520946 L35.3257785,36.6437182 L35.3076211,36.6256005 C32.9310743,34.2542595 29.0638033,34.2542595 26.6872565,36.6256005 L19.8157107,43.4823534 L1.94543781,43.4823534 C0.871037354,43.4823534 0,44.3512239 0,45.4235298 C0,46.4958357 0.871037354,47.3647062 1.94543781,47.3647062 L8.17083879,47.3647062 C11.3048094,47.3647062 14.1967676,49.0628474 15.7188781,51.7962826 L18.9202905,57.5465648 C21.8239214,62.7608235 27.3409236,66 33.3191243,66 L86.7794958,66 C92.7574371,66 98.2746987,62.7608235 101.17807,57.5465648 L104.379483,51.7962826 C105.901593,49.0625886 108.793552,47.3647062 111.927522,47.3647062 L118.152923,47.3647062 C119.227323,47.3647062 120.098361,46.4958357 120.098361,45.4235298 C120.098361,44.3512239 119.227323,43.4823534 118.152923,43.4823534 Z M50.7608821,34.0086359 C51.35878,33.9180477 51.8804167,33.5554359 52.1724917,33.0271771 C52.9319907,31.6533418 54.359942,30.8000007 55.898913,30.8000007 C57.8941541,30.8000007 59.6035454,32.1596007 60.0556651,34.1062124 C60.1988494,34.7224711 60.6338492,35.2305417 61.2216308,35.4676241 C61.8094124,35.7047064 62.4760491,35.6410359 63.0080615,35.2975771 C63.7507,34.817977 64.7239377,34.838683 65.432077,35.3169889 C65.9319249,35.6547535 66.5606903,35.7417182 67.133946,35.5522594 C67.7069423,35.3633183 68.1598403,34.9191771 68.359053,34.350283 C68.669545,33.4651065 69.4995984,32.87033 70.4248486,32.87033 C70.8673709,32.87033 71.2935514,33.0002595 71.657478,33.2461418 C72.1575852,33.5839065 72.7863508,33.6708712 73.359347,33.4814123 C73.9323433,33.2924712 74.3852412,32.8483301 74.584454,32.2794359 C74.8949459,31.3942595 75.7249994,30.799483 76.6502496,30.799483 C77.7723781,30.799483 78.7061883,31.648683 78.8226552,32.7750829 C78.8981382,33.5049654 79.3793098,34.1300241 80.0669572,34.3906594 C80.7543452,34.6515535 81.5304452,34.5029888 82.0725738,34.007083 C82.8738348,33.2738359 83.8960976,32.8700712 84.9510436,32.8700712 C86.9462846,32.8700712 88.655676,34.2296712 89.1077958,36.1762829 C89.25098,36.7925418 89.6859799,37.3006123 90.2737615,37.5376946 C90.8615431,37.774777 91.5281798,37.7111064 92.0601922,37.3676476 C92.4212654,37.1347064 92.8329201,37.0112476 93.2515783,37.0112476 C94.4673472,37.0112476 95.4564078,37.9981417 95.4564078,39.2112476 C95.4564078,40.2835535 96.3274451,41.152424 97.4018456,41.152424 C98.6176146,41.152424 99.6066751,42.1393181 99.6066751,43.3524239 C99.6066751,43.3961652 99.6103067,43.4388711 99.6131599,43.4818358 L67.0805113,43.4818358 L60.209225,36.6256005 C57.8326782,34.2542595 53.9654072,34.2542595 51.5888604,36.6256005 L51.5707029,36.6437182 L47.7986287,32.8799065 C48.2909542,32.9252006 48.7544872,33.1371771 49.1212671,33.4886595 C49.5570451,33.9069182 50.1629842,34.0989654 50.7608821,34.0086359 Z M58.4238319,43.4823534 L54.3218114,39.389577 L54.3397095,39.3717181 C54.7560331,38.9563064 55.3098345,38.7275064 55.8986536,38.7275064 C56.4874728,38.7275064 57.041274,38.9563064 57.4575978,39.3717181 L61.5777757,43.4823534 L58.4238319,43.4823534 Z M10.1170548,5.90971878 C10.1014913,5.3620482 10.3066701,4.84724821 10.6949795,4.45978939 C11.0695411,4.08604823 11.5629042,3.88235411 12.0897287,3.88235411 C12.1091831,3.88235411 12.1283781,3.88261293 12.1478324,3.88338941 C12.6967053,3.89891882 13.200444,4.13263646 13.5659269,4.5413188 L36.711449,30.4192712 L10.7764285,7.32444817 C10.366849,6.959507 10.1326183,6.45713054 10.1170548,5.90971878 Z M41.8891668,35.5853888 C42.3054906,35.1699771 42.8592918,34.9411771 43.4481111,34.9411771 C44.0369302,34.9411771 44.5904721,35.1699771 45.0070552,35.5856476 L52.9210962,43.4823534 L42.1789074,43.4823534 L38.0768869,39.389577 L41.8891668,35.5853888 Z M29.4383649,39.3714593 C30.297989,38.5137181 31.6966291,38.5137181 32.5565127,39.3714593 L36.6761718,43.4823534 L25.3184464,43.4823534 L29.4383649,39.3714593 Z M100.978339,49.9107533 L97.7769261,55.6610355 C95.5591269,59.6435531 91.3453086,62.1176472 86.7792364,62.1176472 L33.3191243,62.1176472 C28.753052,62.1176472 24.5392338,59.6435531 22.321694,55.6610355 L19.1202816,49.9107533 C18.5978667,48.9725179 17.9610601,48.1220239 17.2378759,47.3647062 L102.860744,47.3647062 C102.137301,48.1217651 101.500494,48.9725179 100.978339,49.9107533 Z" id="Shape"></path>
                    <path d="M85.4754098,41.1147541 C86.0438032,41.1147541 86.603541,40.8839345 87.0045901,40.48 C87.4085246,40.0789509 87.6393443,39.5192131 87.6393443,38.9508197 C87.6393443,38.3824263 87.4085246,37.8226885 87.0045901,37.4216394 C86.603541,37.0177049 86.0438032,36.7868852 85.4754098,36.7868852 C84.9041311,36.7868852 84.3472787,37.0177049 83.9462295,37.4216394 C83.542295,37.8226885 83.3114754,38.3824263 83.3114754,38.9508197 C83.3114754,39.5192131 83.542295,40.0789509 83.9462295,40.48 C84.3472787,40.8839345 84.9041311,41.1147541 85.4754098,41.1147541 Z" id="Shape"></path>
                    <path d="M76.8196721,40.0327869 C77.3880655,40.0327869 77.9478033,39.8019672 78.3488524,39.3980328 C78.7527869,38.9969836 78.9836066,38.4372459 78.9836066,37.8688525 C78.9836066,37.2975738 78.7527869,36.7407213 78.3488524,36.3396722 C77.9478033,35.9357377 77.3880655,35.704918 76.8196721,35.704918 C76.2512787,35.704918 75.6915409,35.9357377 75.2904918,36.3396722 C74.8865573,36.7407213 74.6557377,37.2972852 74.6557377,37.8688525 C74.6557377,38.4372459 74.8865573,38.9969836 75.2904918,39.3980328 C75.6915409,39.8019672 76.2512787,40.0327869 76.8196721,40.0327869 Z" id="Shape"></path>
                    <path d="M70.3278689,41.1147541 C70.8962623,41.1147541 71.456,40.8839345 71.8570491,40.48 C72.2609836,40.0789509 72.4918033,39.5192131 72.4918033,38.9508197 C72.4918033,38.3824263 72.2609836,37.8226885 71.8570491,37.4216394 C71.456,37.0177049 70.8962623,36.7868852 70.3278689,36.7868852 C69.7565902,36.7868852 69.1997377,37.0177049 68.7986886,37.4216394 C68.3947541,37.8226885 68.1639344,38.3824263 68.1639344,38.9508197 C68.1639344,39.5192131 68.3947541,40.0789509 68.7986886,40.48 C69.1997377,40.8839345 69.7565902,41.1147541 70.3278689,41.1147541 Z" id="Shape"></path>
                </g>
            </g>
        </g>
    </g>
</svg>