<?xml version="1.0" encoding="UTF-8"?>
<svg width="200px" height="200px" viewBox="0 0 200 200" version="1.1" xmlns="http://www.w3.org/2000/svg" xmlns:xlink="http://www.w3.org/1999/xlink">
    <!-- Generator: Sketch 48 (47235) - http://www.bohemiancoding.com/sketch -->
    <title>Group</title>
    <desc>Created with Sketch.</desc>
    <defs></defs>
    <g id="Page-1" stroke="none" stroke-width="1" fill="none" fill-rule="evenodd">
        <g id="Group">
            <circle id="Oval" fill="#FFFFFF" cx="100" cy="100" r="100"></circle>
            <g id="Group-3" transform="translate(55.000000, 48.000000)" fill="#FFC000" fill-rule="nonzero">
                <path d="M68.6633824,21.9767442 C64.483511,21.9767442 60.4626663,23.1896057 56.9442012,25.4727452 C53.5504275,23.2708241 49.5115116,21.9767442 45.1708064,21.9767442 C40.8301012,21.9767442 36.7911852,23.2708241 33.3974115,25.4727452 C29.8807536,23.1878008 25.8581018,21.9767442 21.6782303,21.9767442 C9.72050914,21.9767442 -0.00722445903,31.69227 4.02590016e-06,43.7974216 L3.60701801,83.3417594 C3.60701801,96.4991405 10.6999688,105 21.6782303,105 C25.8581018,105 29.8789465,103.787139 33.3974115,101.503999 C36.7911852,103.70592 40.8301012,105 45.1708064,105 C49.5115116,105 53.5504275,103.70592 56.9442012,101.503999 C60.4626663,103.787139 64.483511,105 68.6633824,105 C79.6416439,105 86.7345947,96.4991405 86.7273663,83.5041962 L90.3488372,43.6349848 C90.3488372,31.69227 80.6211036,21.9767442 68.6633824,21.9767442 Z M21.6782303,101.390293 C11.0198293,101.390293 7.22126047,92.0664206 7.21403199,83.1793225 L3.60701801,43.6349848 C3.60701801,33.6830233 11.7137639,25.586451 21.6782303,25.586451 C24.7394937,25.586451 27.7031725,26.3643428 30.3704835,27.8497371 C26.145434,31.8041709 23.4853516,37.4082406 23.4853516,43.6349848 L23.4853516,83.3417594 C23.4853516,89.5685035 26.145434,95.1725733 30.3704835,99.1270071 C27.7031725,100.612401 24.7394937,101.390293 21.6782303,101.390293 Z M35.2750105,98.4249191 L34.4979484,97.8527806 C31.0499611,95.311547 28.6410685,91.6549141 27.6326948,87.6120425 C27.620045,87.5615066 27.605588,87.5127755 27.5947453,87.4640445 C27.4537898,86.8810768 27.352591,86.2872801 27.2712706,85.6898736 C27.2568136,85.5851921 27.2351281,85.4841203 27.2242854,85.3794388 C27.1447721,84.7062285 27.1014012,84.0257988 27.1014012,83.3417594 L27.1014012,43.6349848 C27.1014012,42.9509454 27.1465792,42.2705157 27.2242854,41.5973054 C27.2369353,41.4926239 27.2586207,41.3915521 27.2712706,41.2868706 C27.352591,40.6894641 27.4537898,40.0956673 27.5947453,39.5126997 C27.605588,39.4621638 27.6218521,39.4134328 27.6326948,39.3647017 C28.6410685,35.323635 31.0499611,31.667002 34.4979484,29.1257685 L35.282239,28.5482154 C38.1266478,26.681997 41.5222286,25.5882558 45.1726135,25.5882558 C48.8248055,25.5882558 52.2240005,26.6838018 55.0684094,28.5536299 L55.8454715,29.1257685 C59.2952659,31.6688069 61.7041585,35.3254398 62.7125322,39.3683114 C62.725182,39.4170425 62.7378319,39.4639687 62.7504817,39.5126997 C62.8914372,40.0974722 62.992636,40.691269 63.0739564,41.2886754 C63.0884134,41.3915521 63.1100989,41.4926239 63.1209416,41.5973054 C63.2004549,42.2705157 63.2438258,42.9509454 63.2438258,43.6349848 L63.2438258,83.3417594 C63.2438258,84.0257988 63.1986478,84.7062285 63.1209416,85.3794388 C63.1100989,85.4841203 63.0866063,85.5833873 63.0739564,85.6880688 C62.992636,86.2854752 62.8914372,86.8810768 62.7504817,87.4640445 C62.739639,87.5127755 62.725182,87.5597017 62.7125322,87.6084328 C61.7041585,91.6513043 59.2952659,95.3097422 55.8454715,97.8509757 L55.0684094,98.4231143 C52.2221934,100.291138 48.8248055,101.388488 45.1726135,101.388488 C41.5204215,101.388488 38.1194193,100.294747 35.2750105,98.4249191 Z M83.1203523,83.3417594 C83.1203523,92.0664206 79.3217834,101.390293 68.6633824,101.390293 C65.602119,101.390293 62.6366331,100.612401 59.9711293,99.1270071 C64.1979858,95.1725733 66.8562612,89.5666987 66.8562612,83.3417594 L66.8562612,43.6349848 C66.8562612,37.4082406 64.1961787,31.8041709 59.9711293,27.8497371 C62.6384402,26.3643428 65.602119,25.586451 68.6633824,25.586451 C78.6278489,25.586451 86.7345947,33.6830233 86.7418232,43.472548 L83.1203523,83.3417594 Z" id="Shape"></path>
                <path d="M50.0720961,19.3329864 L51.3535603,19.3329864 L51.7705304,18.1496925 C52.3097159,16.6152727 53.0951294,15.2669497 54.1052035,14.1380802 C55.9366369,12.0927725 58.6217806,10.6303335 62.0851487,9.78763159 L63.4151396,9.46459586 L63.4474907,8.12680657 C63.4960174,6.16050211 63.5229767,4.06076984 63.4007613,2.02248459 L63.2785459,0 L61.2476139,0.403794667 C55.1404397,1.61868992 50.3129323,4.16610758 46.8998882,7.97582248 C44.565215,10.5829315 42.9386722,13.7114624 42.0651917,17.2736336 L41.5116279,19.5348837 L43.8894359,19.4365685 C46.028205,19.348787 48.2155008,19.334742 50.0720961,19.3329864 Z M49.6030047,10.2897415 C52.0994335,7.50355828 55.5520179,5.50389687 59.8870692,4.32938108 C59.8978529,5.13521478 59.8942584,5.94455974 59.8816774,6.7416153 C56.3212559,7.8072821 53.4725592,9.51375347 51.402087,11.8259168 C50.3542699,12.9951658 49.4951677,14.3364663 48.8391586,15.8252397 C48.0124076,15.8287509 47.1407244,15.8375291 46.2510683,15.8550854 C47.0328873,13.7693981 48.1561904,11.9049202 49.6030047,10.2897415 Z" id="Shape"></path>
            </g>
        </g>
    </g>
</svg>