<?xml version="1.0" encoding="UTF-8"?>
<svg width="200px" height="200px" viewBox="0 0 200 200" version="1.1" xmlns="http://www.w3.org/2000/svg" xmlns:xlink="http://www.w3.org/1999/xlink">
    <!-- Generator: Sketch 48 (47235) - http://www.bohemiancoding.com/sketch -->
    <title>Group 2</title>
    <desc>Created with Sketch.</desc>
    <defs></defs>
    <g id="Page-1" stroke="none" stroke-width="1" fill="none" fill-rule="evenodd">
        <g id="Group-2">
            <circle id="Oval" fill="#FFFFFF" cx="100" cy="100" r="100"></circle>
            <g id="snack" transform="translate(55.000000, 48.000000)" fill="#FFC000" fill-rule="nonzero">
                <path d="M85.7948276,43.2358154 C81.6976003,34.8944698 75.1628473,29.5497249 67.393672,28.1863659 C62.2466398,27.2823817 55.8429321,27.661366 49.3631935,29.252977 C48.8923781,29.368641 48.4170297,29.463182 47.9387966,29.5407015 C49.2916955,25.1171674 53.0835624,16.2463101 63.007156,8.60940763 C63.9992681,7.84590195 64.1816189,6.42635151 63.4145092,5.43890057 C62.6469874,4.45144963 61.2213542,4.27016061 60.2290361,5.03346121 C55.6523395,8.55547209 52.2573174,12.3143482 49.7423184,15.8673258 C49.1342763,12.5044555 47.7605667,8.48000336 44.7228287,5.45612713 C38.5432992,-0.694164383 28.2012259,0.00679248204 27.76379,0.0398100523 C26.6445474,0.123892064 25.7548402,1.0094192 25.6703613,2.12340331 C25.6371879,2.55878406 24.9331283,12.8520629 31.1124517,19.0025595 C35.2778802,23.1484179 41.334194,24.1807809 44.9737928,24.4032906 C44.0597722,26.5726065 43.5053021,28.3975963 43.1781008,29.6867171 C42.3223913,29.6018148 41.472451,29.4582601 40.6367279,29.252977 C34.1569892,27.6615711 27.7534877,27.2829969 22.6062494,28.1863659 C14.837074,29.5497249 8.30211505,34.8942647 4.20509383,43.2358154 C0.2263431,51.3370147 -0.981087211,61.3530279 0.805744812,71.4391779 C2.59257684,81.5255329 7.16886134,90.5266148 13.6916636,96.7845723 C19.2963243,102.161719 25.7789476,105 32.2860904,105 C33.5767634,105 34.8684665,104.888438 36.1544004,104.662852 C36.7560551,104.557236 37.3799628,104.416963 38.0090216,104.245723 C42.5830396,102.999258 47.4181181,102.999053 51.9915179,104.245928 C52.6201647,104.416963 53.2438663,104.557442 53.8451089,104.662647 C55.1314549,104.888438 56.4227459,105 57.713831,105 C64.2203556,104.99959 70.7040091,102.161309 76.3082578,96.7847773 C82.83106,90.5270249 87.4073446,81.525738 89.1941766,71.439383 C90.9810086,61.3530279 89.7739904,51.3370147 85.7948276,43.2358154 Z M34.3240927,15.8060075 C31.0599099,12.5573657 30.3381303,7.41031612 30.2033761,4.55132265 C33.0775136,4.68585387 38.2480351,5.4040373 41.5113937,8.65247403 C44.7753704,11.9011158 45.497356,17.0481654 45.6321102,19.9071589 C42.7579728,19.7728327 37.5874512,19.0544442 34.3240927,15.8060075 Z M84.7219454,70.6545492 C81.4210864,89.2846619 67.9221804,102.543575 54.6332353,100.210812 C54.1692194,100.129601 53.6835687,100.020089 53.1907064,99.8857629 C47.8326829,98.4249918 42.1680627,98.4251969 36.8096271,99.8855579 C36.3161466,100.020089 35.8304959,100.129396 35.366274,100.210812 C22.0767108,102.542754 8.578835,89.2842518 5.27797602,70.6543441 C3.65659904,61.5023248 4.72453612,52.4696609 8.28501322,45.2211763 C11.7274259,38.212633 17.0934852,33.7439817 23.3947879,32.6377906 C24.9421943,32.3662672 26.6585586,32.2325563 28.4820668,32.2325563 C31.9298366,32.2325563 35.75941,32.7110035 39.5485983,33.6414427 C41.320801,34.0768235 43.143073,34.2952316 44.965551,34.2981027 C44.9779138,34.2983078 44.9902765,34.3005636 45.0026393,34.3005636 C45.0253044,34.3005636 45.0477634,34.2981027 45.0702224,34.2974875 C46.8807498,34.2921554 48.6904529,34.0739524 50.450911,33.6416478 C56.244516,32.218611 62.1322842,31.8527517 66.6049275,32.6379957 C72.9060241,33.7441868 78.2720834,38.2128381 81.7147021,45.2213814 C85.2749732,52.469866 86.3431163,61.5025298 84.7219454,70.6545492 Z" id="Shape"></path>
                <path d="M77.7735011,71.5605136 C76.5704255,71.2112747 75.3157571,71.9101668 74.9692023,73.1215245 C73.4950081,78.274559 71.0609022,82.7974721 67.9301923,86.2009978 C64.7211684,89.6894512 61.1425681,91.6106794 57.8535858,91.6106794 C56.6026174,91.6106794 55.5882353,92.6329179 55.5882353,93.893575 C55.5882353,95.1542322 56.6026174,96.1764706 57.8535858,96.1764706 C62.4182024,96.1764706 67.1768569,93.7361482 71.2530901,89.3047913 C74.8629337,85.3805143 77.6532552,80.221887 79.322515,74.3865316 C79.6690698,73.1749667 78.9757546,71.9095454 77.7735011,71.5605136 Z" id="Shape"></path>
                <path d="M78.4629346,61.7926727 C77.271396,61.6051224 76.1486533,62.3806734 75.9527731,63.5252258 C75.9464288,63.5623928 75.9392914,63.5995598 75.9309645,63.6369174 C75.6789769,64.7713681 76.4315694,65.8877117 77.6114107,66.129583 C77.76526,66.161032 77.9185145,66.1764706 78.0697863,66.1764706 C79.0785299,66.1764706 79.9855664,65.5007939 80.2044447,64.5140582 C80.2272445,64.4111342 80.247467,64.3084009 80.2649138,64.2056675 C80.4603975,63.0613057 79.6538785,61.9809854 78.4629346,61.7926727 Z" id="Shape"></path>
            </g>
        </g>
    </g>
</svg>