<?xml version="1.0" encoding="UTF-8"?>
<svg width="200px" height="200px" viewBox="0 0 200 200" version="1.1" xmlns="http://www.w3.org/2000/svg" xmlns:xlink="http://www.w3.org/1999/xlink">
    <!-- Generator: Sketch 48 (47235) - http://www.bohemiancoding.com/sketch -->
    <title>Group 6</title>
    <desc>Created with Sketch.</desc>
    <defs></defs>
    <g id="Page-1" stroke="none" stroke-width="1" fill="none" fill-rule="evenodd">
        <g id="Group-6">
            <circle id="Oval-Copy" fill="#FFFFFF" cx="100" cy="100" r="100"></circle>
            <g id="starter" transform="translate(53.000000, 48.000000)" fill="#FFC000" fill-rule="nonzero">
                <path d="M93.9436421,36.575985 C94.0902573,29.4731082 89.8988933,23.0834376 83.4038368,20.3218157 C82.4563356,14.2604753 77.5483895,9.52340004 71.4491942,8.72081509 C71.3942135,8.11705232 71.278754,7.51511361 71.1046483,6.92047113 C70.0288588,3.2650615 66.790494,0.512559933 63.0499719,0.0711382114 C60.660143,-0.211590577 58.3014698,0.388524078 56.3808098,1.72920575 C54.6745746,0.605586825 52.6897704,0 50.6554835,0 C45.4158203,0 41.0613467,3.85240775 40.3026127,8.86126746 C40.1156783,8.89957265 39.9360745,8.95247029 39.7528055,8.99624765 C39.5805325,8.58218678 39.4027615,8.17359808 39.2011655,7.77595372 C36.5236041,2.50078174 31.7952617,-0.565457578 27.4132978,0.138628309 C24.5378058,0.603762768 22.1553076,2.54820721 20.7569645,5.48129039 C18.2278511,4.32301438 15.6474223,4.12601626 13.3162395,4.94319366 C10.829278,5.81509277 8.89762182,7.67745466 7.73019773,10.3314572 C6.18157394,13.8482385 6.17974125,18.370075 7.6770497,22.6712008 C5.65925704,24.0501876 4.15095244,26.0767146 3.26942813,28.6176256 C1.78678121,32.8840942 2.28160775,38.0315822 4.62561938,42.7467688 C4.8821961,43.2611528 5.16259781,43.7718887 5.46865719,44.2735043 C3.26759544,45.6980926 1.62000634,47.8103502 0.736649336,50.3877423 C-0.667191877,54.4772775 -0.0459096692,59.2964353 2.44105185,63.6048572 C3.58281827,65.5839587 5.09478825,67.3770065 6.85600418,68.8508443 C6.26771041,71.3023765 6.71305429,73.9965082 8.14621856,76.435272 C10.1640112,79.8608505 13.7927392,82.1701063 17.6157323,82.5403898 C23.6379546,93.7966437 31.1098353,98.630394 42.6081378,103.482385 L42.7364262,103.537107 C44.3528596,104.54581 46.1965466,105 48.020074,105 C49.1031943,105 50.1716531,104.834011 51.1796331,104.549458 C51.1961273,104.543986 51.2126215,104.54581 51.2291157,104.540338 C51.2364465,104.53669 51.2419446,104.531217 51.2492753,104.527569 C52.1069747,104.277674 52.9243548,103.947519 53.6501004,103.526162 C57.1285477,101.505107 58.537887,98.052168 57.3264783,94.5171461 C53.8516964,84.3699187 54.1339308,76.7490098 58.1676834,71.8714822 C65.148403,63.4315718 81.3438923,65.5055243 81.5033364,65.5328851 L83.3873426,65.7882531 L83.5761098,63.9058266 C83.6017674,63.6577548 84.1424112,57.7806442 80.6969524,53.787784 C80.4971891,53.5561288 80.2864296,53.335418 80.0683394,53.1256514 C81.0414983,52.9104128 82.0054937,52.6039712 82.9511622,52.2045028 C89.4883705,49.4538253 93.8043576,43.3213467 93.9436421,36.575985 Z M20.3867609,79.9374609 L19.8736075,78.9342297 L18.7428372,78.941526 C18.726343,78.941526 18.7098488,78.941526 18.6951873,78.941526 C15.8086991,78.941526 12.845238,77.1977277 11.3112757,74.5893267 C10.1933343,72.6886596 9.96424791,70.6147071 10.6826627,68.8982698 L11.2398008,67.5685324 L10.070544,66.720346 C8.26900885,65.4143215 6.72954851,63.7088284 5.61893784,61.7844486 C3.65979129,58.386231 3.14297246,54.6596831 4.20593317,51.5624349 C5.00132101,49.2458828 6.59759477,47.5385658 8.82248149,46.6228893 L10.9942202,45.7309256 L9.59587705,43.8539712 C8.9416064,42.9729518 8.37347223,42.0554513 7.91163413,41.1270065 C6.02946059,37.3402647 5.58778209,33.1084532 6.73504658,29.8087346 C7.49378061,27.6198666 8.88296029,25.992808 10.7486396,25.1063164 L12.317423,24.3584532 L11.6484908,22.7587555 L11.5678524,22.5854701 C9.95691715,18.7987284 9.77548075,14.7730352 11.0876874,11.7961747 C11.6100043,10.6087138 12.6344785,9.05096936 14.534979,8.38518866 C16.3640045,7.7431207 18.5504047,8.18819054 20.7038165,9.62919533 L22.8187417,11.0483114 L23.493172,8.59860329 C24.251906,5.8515739 25.893997,4.08041484 28.0015915,3.7411403 C30.7487952,3.27600584 34.0036542,5.6326871 35.9261469,9.41942881 C36.0800929,9.72404628 36.2230428,10.0341359 36.3549966,10.3515218 C36.3128447,10.3752345 36.2780236,10.4062435 36.2358717,10.4299562 C35.86017,10.6524911 35.4954645,10.8932666 35.1454206,11.1522827 C34.9346611,11.3055034 34.7367305,11.4696685 34.5369672,11.6356577 C34.4031808,11.7469252 34.2730597,11.8618407 34.1447714,11.9767563 C33.4080296,12.6352408 32.753759,13.3685116 32.1911229,14.1692725 C32.148971,14.2294663 32.1104845,14.2896602 32.0683326,14.3498541 C31.7439463,14.8277569 31.4543812,15.3239004 31.1959717,15.8401084 C31.1318276,15.9659683 31.0658507,16.0918282 31.0053719,16.2195122 C30.8935778,16.4639358 30.7909471,16.7101834 30.6938144,16.9619033 C30.5911838,17.2245674 30.5032146,17.4908797 30.4189108,17.7608401 C30.3492686,17.9851991 30.2796263,18.207734 30.2228129,18.4375651 C30.1220149,18.8297373 30.0432092,19.2292058 29.9808977,19.6341463 C29.9589054,19.7818949 29.9387458,19.9278195 29.9204189,20.0773921 C29.8599401,20.5771837 29.8196209,21.0824474 29.8196209,21.5968314 C29.8196209,21.9306337 29.8342824,22.2644361 29.8599401,22.6037107 C22.9140417,23.8477173 17.7275265,29.854336 17.7275265,37.0721284 C17.7275265,39.1588493 18.1802011,41.2273296 19.0488966,43.1298207 C17.0970808,45.2074213 16.0011317,47.9416823 16.0011317,50.82734 C16.0011317,55.13941 18.4899259,59.0501876 22.3147517,60.9326141 C22.3055883,61.9084845 22.3202498,62.858818 22.3532383,63.790911 C22.3642344,64.0955285 22.3880594,64.3910256 22.4027209,64.691995 C22.4338767,65.3121743 22.4705305,65.9305295 22.5218458,66.5342923 C22.5511689,66.879039 22.5914881,67.2164895 22.6263092,67.555764 C22.6831226,68.101157 22.7454341,68.6429018 22.8205744,69.1737023 C22.8682244,69.5202731 22.9232051,69.8650198 22.9781858,70.2061184 C23.0606569,70.7168543 23.1504588,71.222118 23.2494241,71.7219095 C23.315401,72.05936 23.3850432,72.3949864 23.4583509,72.7287888 C23.5683123,73.2267563 23.6892699,73.7210757 23.8157256,74.2099229 C23.896364,74.5254847 23.9770024,74.8410465 24.0631388,75.1529602 C24.2079214,75.6655201 24.3655328,76.1707838 24.5286423,76.6723994 C24.6166115,76.947832 24.7009153,77.2269127 24.7943825,77.5005212 C25.0014766,78.1042839 25.2287302,78.7007505 25.4633147,79.295393 C25.5274589,79.457734 25.5842723,79.6255472 25.6502491,79.7878883 C25.9563085,80.5393996 26.2843602,81.2854388 26.6344041,82.0241818 C26.7333695,82.2339483 26.8433309,82.4418908 26.9459616,82.6498332 C27.204371,83.1788097 27.4664458,83.7059621 27.7468475,84.2312904 C27.8971282,84.5121951 28.058405,84.7930999 28.2160164,85.0758286 C28.467095,85.5263706 28.7200064,85.9769127 28.9875792,86.4238065 C29.1690156,86.728424 29.3577828,87.0330415 29.5447173,87.3358349 C29.8067921,87.7608401 30.0743649,88.1858453 30.3511013,88.6108505 C30.5545299,88.9245883 30.7634567,89.238326 30.9742161,89.5520638 C31.2582832,89.9734209 31.5496811,90.394778 31.8484097,90.8179591 C32.0683326,91.1316969 32.2900882,91.4454346 32.5191746,91.7591724 C32.8325647,92.1896498 33.156951,92.6237753 33.48317,93.0579008 C33.7159217,93.3661664 33.9431754,93.6744319 34.1832579,93.9845216 C34.5387999,94.4460079 34.9108362,94.9129664 35.2828724,95.379925 C35.5101261,95.6663019 35.730049,95.9490306 35.9628007,96.2372316 C35.9829603,96.2627684 36.0031199,96.2883052 36.0232795,96.313842 C29.2918059,92.581822 24.5341404,88.0435689 20.3867609,79.9374609 Z M73.3973446,49.4793621 L72.9098488,49.3991036 L71.1358041,49.8076923 L70.9415388,53.8333854 L72.7705643,53.9300605 C75.0266068,54.044976 76.7053517,54.7727747 77.9020988,56.1499375 C79.3554227,57.8225975 79.7952685,60.1300292 79.9143934,61.7187826 C74.8726608,61.3922764 62.0548208,61.441526 55.3453395,69.5403377 C50.4410587,75.4594017 49.9407341,84.2568272 53.8553618,95.6900146 C54.7222246,98.2236294 52.9390163,99.7102356 51.7990826,100.372368 C51.7184442,100.419794 51.6268097,100.450803 51.5443386,100.49458 C47.9595952,91.7172191 45.7218797,83.9084324 44.5159691,76.980665 C44.5086383,76.9368876 44.5049729,76.8949343 44.4958095,76.852981 C43.5428102,71.3260892 43.2330854,66.3591828 43.4126891,61.9103085 C45.9784564,57.5562852 53.5199793,57.3811757 53.5969524,57.3793517 C54.6085977,57.3629352 55.4168144,56.5366375 55.4021529,55.5297582 C55.3874913,54.5301751 54.5719439,53.7312383 53.5712947,53.7312383 C53.5639639,53.7312383 53.5566332,53.7312383 53.5493024,53.7312383 C53.2505738,53.7348864 48.0255721,53.8479779 43.8800253,56.4344903 C44.385848,52.822858 45.2270531,49.6234626 46.2698542,46.7815822 C46.3724849,46.6575464 46.4659521,46.5225662 46.5355944,46.3675214 C46.6418905,46.1340421 46.6913731,45.8896185 46.6950385,45.648843 C48.0090779,42.3582447 49.5906901,39.5966229 51.2364465,37.2928393 C59.4542324,35.5909944 65.6542257,38.1501459 65.7916775,38.2066917 C66.03176,38.312487 66.2810059,38.3599124 66.5229211,38.3599124 C67.2285071,38.3599124 67.9011047,37.9513237 68.2034987,37.2691265 C68.610356,36.3461538 68.1870044,35.2699604 67.2614956,34.8650198 C67.0067515,34.7537523 61.9503574,32.6068376 54.6800727,33.13399 C58.2299949,29.4475714 61.3492348,27.7767355 61.8129056,27.5414321 C64.4758054,26.2718887 68.3666082,27.9117157 69.6439937,28.6541067 C69.9353915,28.8255681 70.2542798,28.9058266 70.5713353,28.9058266 C71.1981156,28.9058266 71.8102343,28.5847926 72.1511148,28.0083907 C72.6642683,27.1401397 72.3765358,26.023817 71.5023422,25.511257 C71.2934155,25.3872212 67.1735264,23.0159475 62.9528393,23.4920263 C63.3138794,22.0127163 64.1147653,20.6683865 64.5234554,20.1284657 C65.1374068,19.3295289 64.9834608,18.1858453 64.1789095,17.5747863 C63.3780236,16.9637273 62.225261,17.1133 61.6113096,17.9158849 C61.49585,18.0636335 59.0913596,21.2374922 59.0968577,24.8910778 C56.4302925,26.5163123 49.5412074,31.4430894 44.7212304,41.3440692 C44.4609883,41.8766938 44.2099097,42.4494476 43.9606637,43.0240254 C38.961083,39.6221597 39.7839612,33.5699395 39.8297785,33.2762664 C39.9855572,32.2839796 39.3056289,31.3518866 38.3068124,31.1931937 C37.3098285,31.0253804 36.3678254,31.7130498 36.2083813,32.7071607 C35.6769009,36.0178236 36.4393004,42.8397957 42.6136359,46.5043256 C41.2501139,50.4953617 40.2164763,55.2597978 39.897588,60.8833646 C39.8609342,61.0602981 39.8536035,61.2317594 39.868265,61.4068689 C39.6776651,65.3486554 39.8609342,69.7209193 40.4987106,74.5090682 C38.1748586,73.2358766 37.1118979,71.3735147 37.0440883,71.2476548 C36.565756,70.3629873 35.4624761,70.0237127 34.5717883,70.4924953 C33.6774352,70.9612779 33.3310566,72.0648322 33.8038909,72.9567959 C33.9010235,73.1410256 36.0947545,77.1776631 41.1658101,78.7372316 C42.3973784,85.4643527 44.5617863,92.9849385 47.9339375,101.339118 C46.7756769,101.322702 45.6339105,101.036325 44.6589189,100.425266 L44.6607516,100.419794 C44.462821,100.293934 44.2978788,100.171722 44.136602,100.047686 C43.9368387,99.885345 43.7352427,99.7266521 43.5593044,99.531478 C43.550141,99.5223577 43.5391448,99.5132374 43.5299814,99.5041172 L42.7602512,98.6322181 C31.2839409,85.4862414 25.5402877,75.8698145 25.9966277,59.7889306 L26.0351142,58.4591932 L24.7742229,58.0177715 C21.7154618,56.939754 19.6591827,54.0504482 19.6591827,50.8291641 C19.6591827,48.5363248 20.6818242,46.3857619 22.4631997,44.9301647 L23.6654449,43.9488222 L22.8847186,42.6081405 C21.904229,40.9208881 21.3855775,39.0074526 21.3855775,37.0757765 C21.3855775,31.1293517 26.06627,26.2791849 32.0408422,26.0292891 L34.2675617,25.9362622 L33.7470774,23.7802272 C33.5674737,23.0396602 33.4776719,22.3045654 33.4776719,21.6004795 C33.4776719,21.0404941 33.5399834,20.4951011 33.637116,19.9588284 C33.660941,19.8220242 33.6994275,19.6906921 33.7287505,19.557536 C33.8240505,19.139827 33.9431754,18.7294142 34.093456,18.3335939 C34.1337752,18.2241505 34.1759271,18.1165312 34.2217444,18.0089118 C34.4215077,17.5401292 34.6487614,17.0841151 34.9199996,16.6572858 C34.9309958,16.6408693 34.9383265,16.6226287 34.9493227,16.6062122 C35.5394491,15.6868876 36.2926851,14.8824786 37.1595479,14.2148739 C37.2786728,14.123671 37.4051284,14.0434125 37.5279187,13.9576819 C37.8211493,13.7533875 38.125376,13.5691578 38.4405988,13.3995205 C38.6385294,13.2937252 38.83646,13.1915781 39.0435541,13.1003752 C40.0075495,12.6680738 41.0485179,12.3689285 42.1536305,12.2868459 L43.8470369,12.159162 L43.8470369,10.4627892 L43.8433715,10.3205128 C43.905683,6.63227017 46.935121,3.6481134 50.6554835,3.6481134 C52.3122361,3.6481134 53.925004,4.27558891 55.1950588,5.41562435 L56.4797751,6.57025224 L57.7113434,5.35907859 C59.0052231,4.08588701 60.7811006,3.47665207 62.6192896,3.69371482 C64.9211493,3.96367521 66.9187824,5.67281634 67.5858818,7.94559099 C67.8076374,8.6952783 67.8736143,9.457734 67.7838125,10.2110694 L67.5950453,12.2448926 L69.6568225,12.2448926 C75.0211087,12.2448926 79.5093687,16.4183344 79.8777396,21.746404 L79.9620433,22.9448093 L81.1001444,23.3424536 C86.7136765,25.3014905 90.4010506,30.5894309 90.2782603,36.5011987 C90.1682989,41.8092037 86.7320035,46.6520742 81.5253287,48.8409423 C78.9045807,49.9408484 76.2453462,50.1487909 73.3973446,49.4793621 Z" id="Shape"></path>
            </g>
        </g>
    </g>
</svg>